<?xml version="1.0" standalone="no"?><!DOCTYPE svg PUBLIC "-//W3C//DTD SVG 1.1//EN"
        "http://www.w3.org/Graphics/SVG/1.1/DTD/svg11.dtd">
<svg t="1737207259346" class="icon" viewBox="0 0 1024 1024" version="1.1" xmlns="http://www.w3.org/2000/svg"
     p-id="1528" data-darkreader-inline-fill="" width="256" height="256">
    <path d="M216.064 331.946667V286.72H170.88V331.946667h45.184zM142.933333 744.362667c23.381333 0 41.642667-6.912 54.784-20.736 13.141333-13.824 19.712-33.493333 19.712-59.008v-268.373334H172.288v268.373334c0 15.146667-2.986667 26.026667-8.832 32.768a29.909333 29.909333 0 0 1-23.722667 10.069333 76.501333 76.501333 0 0 1-19.029333-2.730667l-3.2 35.498667a102.4 102.4 0 0 0 12.501333 3.114667c3.882667 0.682667 8.192 1.024 12.928 1.024z m205.610667-95.317334c28.714667 0 51.968-6.826667 69.76-20.394666 17.792-13.610667 26.709333-31.402667 26.709333-53.418667 0-19.370667-7.68-34.858667-22.912-46.378667-15.274667-11.52-38.570667-20.693333-69.930666-27.392-21.077333-4.437333-35.029333-9.472-41.898667-15.146666a28.373333 28.373333 0 0 1-10.325333-23.125334c0-9.941333 3.882667-18.432 11.690666-25.429333 7.765333-7.04 19.712-10.538667 35.754667-10.538667 14.933333 0 27.008 4.266667 36.096 12.928 9.088 8.618667 13.653333 18.346667 13.653333 29.226667h43.050667l0.426667-1.365333c0.810667-21.248-7.338667-39.253333-24.362667-54.101334-17.066667-14.805333-40.021333-22.186667-68.864-22.186666-27.52 0-49.834667 7.082667-66.944 21.290666-17.066667 14.208-25.642667 31.36-25.642667 51.541334 0 19.413333 7.594667 34.730667 22.784 45.952 15.189333 11.221333 37.845333 20.138667 67.968 26.709333 21.077333 4.693333 35.413333 10.282667 42.965334 16.725333a30.72 30.72 0 0 1 11.349333 24.490667 30.037333 30.037333 0 0 1-13.653333 25.6c-9.088 6.485333-21.632 9.728-37.674667 9.728-14.976 0-28.074667-3.712-39.210667-11.093333-11.136-7.466667-17.109333-19.2-17.877333-35.2h-43.093333l-0.426667 1.365333c-0.938667 21.376 7.68 40.106667 25.898667 56.149333 18.176 16.042667 43.093333 24.064 74.666666 24.064z m222.08 0c34.218667 0 61.226667-11.776 81.109333-35.285333 19.84-23.552 29.781333-53.76 29.781334-90.752v-5.034667c0-36.821333-9.941333-67.072-29.866667-90.752-19.968-23.68-47.104-35.541333-81.493333-35.541333-34.090667 0-61.013333 11.861333-80.896 35.626667-19.882667 23.765333-29.781333 53.973333-29.781334 90.666666v5.034667c0 36.821333 9.941333 66.986667 29.866667 90.624 19.968 23.594667 47.061333 35.413333 81.28 35.413333z m0-35.285333c-21.845333 0-38.314667-8.533333-49.408-25.685333-11.093333-17.109333-16.64-38.826667-16.64-65.066667v-5.034667c0-26.026667 5.546667-47.616 16.64-64.853333 11.093333-17.28 27.392-25.898667 48.938667-25.898667 21.674667 0 38.144 8.618667 49.365333 25.898667 11.221333 17.237333 16.853333 38.826667 16.853333 64.853333v5.034667c0 26.282667-5.546667 47.957333-16.725333 65.066667-11.136 17.109333-27.52 25.685333-49.066667 25.685333z m180.138667 30.464v-180.821333c5.973333-10.837333 13.909333-19.413333 23.936-25.642667 10.026667-6.272 21.504-9.386667 34.474666-9.386667 17.749333 0 30.933333 4.565333 39.552 13.738667 8.618667 9.173333 12.928 24.661333 12.928 46.506667V644.266667h45.141334v-156.501334c0-32.725333-7.296-56.874667-21.973334-72.533333s-35.413333-23.466667-62.122666-23.466667c-15.872 0-30.037333 3.584-42.496 10.837334a90.026667 90.026667 0 0 0-31.061334 30.592l-3.2-36.906667h-40.32V644.266667h45.141334z"
          fill="#8C929A" p-id="1529" style="--darkreader-inline-fill: #555c60;" data-darkreader-inline-fill=""></path>
    <path d="M140.8 810.666667a25.6 25.6 0 0 1-25.6 25.6 110.933333 110.933333 0 0 1-110.72-103.936L4.266667 725.333333V298.496A110.762667 110.762667 0 0 1 115.029333 187.733333a25.6 25.6 0 1 1 0 51.2c-30.933333 0-56.405333 23.637333-59.306666 53.845334l-0.256 5.717333V725.333333a59.733333 59.733333 0 0 0 53.973333 59.477334l5.76 0.256a25.6 25.6 0 0 1 25.6 25.6zM883.2 810.666667a25.6 25.6 0 0 0 25.6 25.6 110.933333 110.933333 0 0 0 110.72-103.936L1019.733333 725.333333V298.496A110.762667 110.762667 0 0 0 908.970667 187.733333a25.6 25.6 0 1 0 0 51.2c30.933333 0 56.405333 23.637333 59.306666 53.845334l0.256 5.717333V725.333333a59.733333 59.733333 0 0 1-53.973333 59.477334l-5.76 0.256a25.6 25.6 0 0 0-25.6 25.6z"
          fill="#4262E8" p-id="1530" style="--darkreader-inline-fill: var(--darkreader-background-4262e8, #132e9f);"
          data-darkreader-inline-fill=""></path>
</svg>